<svg version="1.1" id="Layer_1" xmlns="http://www.w3.org/2000/svg" xmlns:xlink="http://www.w3.org/1999/xlink" x="0px" y="0px"
	 width="100%" viewBox="0 0 1024 1024" enable-background="new 0 0 1024 1024" xml:space="preserve">
<path fill="#000000" opacity="1.000000" stroke="none" 
	d="
M1025.000000,3.000000 
	C1025.000000,343.621490 1025.000000,684.242981 1025.000000,1024.932251 
	C683.757141,1024.932251 342.514221,1024.932251 1.000000,1024.932251 
	C1.000000,684.635803 1.000000,344.271545 1.453625,3.456749 
	C342.938171,3.004156 683.969055,3.002078 1025.000000,3.000000 
M148.247772,594.516052 
	C148.311218,595.063354 148.374680,595.610718 148.480484,597.074219 
	C148.453690,649.430786 148.421921,701.787415 148.419342,754.143982 
	C148.419250,756.113464 148.702225,758.082947 148.885056,760.706787 
	C149.262589,760.842651 149.640106,760.978516 150.784943,761.406250 
	C171.880554,761.440002 192.976181,761.493286 214.071762,761.484985 
	C217.039474,761.483826 220.007050,761.181030 223.853424,761.372498 
	C228.660736,761.423218 233.469025,761.559937 238.275177,761.506348 
	C247.525162,761.403320 256.773956,761.192566 266.609589,761.025818 
	C266.740631,760.689636 266.871704,760.353455 267.384216,759.144165 
	C267.439758,757.981873 267.544586,756.819580 267.543701,755.657349 
	C267.510193,710.724915 267.462555,665.792480 267.429382,620.860046 
	C267.423462,612.872131 267.639008,604.878235 267.353668,596.901367 
	C267.297821,595.339294 265.415283,592.528992 264.350403,592.517151 
	C251.902008,592.377869 239.448853,592.664062 226.114990,592.486877 
	C203.360931,592.445007 180.606888,592.388733 157.852829,592.380737 
	C155.227951,592.379822 152.602997,592.647095 149.303940,592.927979 
	C149.105728,593.341736 148.907516,593.755432 148.247772,594.516052 
M664.481567,348.796936 
	C659.321594,348.890656 654.161682,348.984344 648.133789,348.767487 
	C645.085693,348.892090 642.037598,349.016663 638.176575,348.819000 
	C636.456055,348.932343 634.735535,349.045685 632.215759,348.846130 
	C630.812744,348.957825 629.409790,349.069519 627.118530,348.845428 
	C622.459351,348.744537 617.792114,348.779663 613.143494,348.501617 
	C609.105835,348.260132 607.897095,350.115662 608.046814,353.878876 
	C608.284973,359.866638 608.265503,365.866669 608.266479,371.861511 
	C608.286255,495.597321 608.291687,619.333130 608.319519,743.068909 
	C608.319946,745.053772 608.564026,747.038696 608.453979,749.661072 
	C608.531738,750.101318 608.609497,750.541565 608.422241,751.794617 
	C608.498901,753.203552 608.575562,754.612427 608.397705,756.657043 
	C608.464478,757.101746 608.531250,757.546448 608.364014,758.668884 
	C608.487244,759.119202 608.610474,759.569458 609.095154,760.742615 
	C618.688232,760.823425 628.281250,760.904175 638.774597,761.304993 
	C642.890198,761.207275 647.005859,761.109558 651.827209,761.326294 
	C653.890625,761.224487 655.954041,761.122742 658.777527,761.333313 
	C669.186035,761.225403 679.594604,761.117432 690.849670,761.270630 
	C692.900269,761.181030 694.950806,761.091431 697.862061,761.257874 
	C700.241394,761.163696 702.620667,761.069580 705.761780,761.288940 
	C711.089294,761.363525 716.426880,761.261658 721.741150,761.567200 
	C726.182434,761.822571 727.552124,759.932800 727.476379,755.679321 
	C727.277771,744.523621 727.402771,733.362183 727.400574,722.203003 
	C727.376770,600.897644 727.357239,479.592255 727.290649,358.286926 
	C727.289673,356.522064 726.702087,354.757568 726.596375,352.097870 
	C725.333435,350.921570 724.089539,348.754608 722.804443,348.729919 
	C714.541016,348.571198 706.268616,348.881622 697.115784,348.742035 
	C693.411377,348.846863 689.707031,348.951691 685.126221,348.751434 
	C681.749084,348.845490 678.372009,348.939575 674.172485,348.731018 
	C672.445312,348.841125 670.718140,348.951263 668.429749,348.784485 
	C667.839722,348.915375 667.249634,349.046265 666.220703,348.886261 
	C665.896423,348.977966 665.572205,349.069641 664.481567,348.796936 
M763.154602,265.221619 
	C762.400452,267.181488 761.009460,269.135742 760.992126,271.102112 
	C760.843445,287.929962 760.966064,304.760071 760.965637,321.589478 
	C760.962036,464.890228 760.956848,608.190979 760.924744,751.491760 
	C760.922363,762.113281 760.843811,762.130615 772.915955,761.192627 
	C777.945557,761.117004 782.975159,761.041443 788.811401,761.202393 
	C796.822937,761.143311 804.834473,761.084290 813.751465,761.365723 
	C817.199829,761.266785 820.648193,761.167847 824.962219,761.403503 
	C831.622192,761.274048 838.282227,761.144653 845.807617,761.353394 
	C848.542847,761.239258 851.278015,761.125183 854.886353,761.318787 
	C860.591675,761.202271 866.297058,761.085815 872.626465,761.299927 
	C874.762146,760.865784 876.897766,760.431702 879.232788,759.348694 
	C879.212646,758.898987 879.192505,758.449219 879.445129,757.222656 
	C879.544128,755.563232 879.729797,753.903748 879.729919,752.244324 
	C879.744568,599.809448 879.748169,447.374512 879.719482,294.939606 
	C879.718933,292.293762 879.315979,289.647980 879.262573,286.075378 
	C879.279602,280.460541 879.260803,274.845306 879.328674,269.231079 
	C879.362671,266.418365 878.282654,264.836243 875.273254,264.946777 
	C869.838013,265.146393 864.401489,265.310760 858.096313,265.231110 
	C855.368347,265.331604 852.640442,265.432068 849.037170,265.285126 
	C845.685303,265.290344 842.333374,265.295593 838.081238,265.061462 
	C833.384277,265.136078 828.687317,265.210693 823.116150,265.160339 
	C821.064148,265.281219 819.012146,265.402100 816.058960,265.276367 
	C809.731262,265.269653 803.403625,265.262939 796.153503,265.001129 
	C785.412170,265.068573 774.670898,265.136017 763.154602,265.221619 
M420.991333,617.958557 
	C420.892792,603.962463 420.794220,589.966431 421.050751,575.163269 
	C420.926025,572.337524 420.801300,569.511719 421.030945,565.845337 
	C420.912628,552.318237 420.794312,538.791138 421.047516,524.499146 
	C421.138702,521.538391 421.290222,518.577942 421.303802,515.616821 
	C421.316986,512.737305 420.181824,511.153595 416.354584,511.985962 
	C415.899780,512.090576 415.444977,512.195190 414.181030,511.966431 
	C412.456604,512.073914 410.732178,512.181458 408.143646,511.932770 
	C404.427094,512.042419 400.710541,512.152039 396.116119,511.920898 
	C391.406982,512.040222 386.697876,512.159546 381.109589,511.930084 
	C372.398132,512.034180 363.686676,512.138245 354.096375,511.897888 
	C340.279083,511.869019 326.460968,511.733734 312.644775,511.842896 
	C300.233643,511.940948 301.625549,509.472351 301.583405,522.942688 
	C301.448486,566.063538 301.498810,609.185059 301.520996,652.306274 
	C301.538818,686.937866 301.679932,721.569641 301.594330,756.200928 
	C301.583923,760.413635 303.038239,761.769714 307.099854,761.596558 
	C313.083649,761.341492 319.085938,761.555603 325.079376,761.484680 
	C335.046997,761.366882 345.013794,761.181458 355.860229,761.375183 
	C361.930786,761.264099 368.001343,761.153015 374.937683,761.386536 
	C384.276062,761.271484 393.614471,761.156372 403.836884,761.374023 
	C408.902313,761.259460 413.967712,761.144836 419.749695,761.088440 
	C420.038239,759.646729 420.326813,758.204956 420.947479,756.056702 
	C420.815948,754.789307 420.684418,753.521912 420.922852,751.532104 
	C420.796936,749.364868 420.671051,747.197693 420.925568,744.158142 
	C420.991943,743.330261 421.115662,742.502441 421.116425,741.674500 
	C421.148895,706.077942 421.176178,670.481323 421.170502,634.884766 
	C421.170288,633.580139 420.834534,632.275513 420.997253,630.119873 
	C420.880859,626.312378 420.764465,622.504944 420.991333,617.958557 
M489.100739,432.556763 
	C479.772614,432.509766 470.437683,432.656982 461.119354,432.330627 
	C456.713654,432.176331 455.415070,433.614044 455.419189,438.023712 
	C455.508087,532.994019 455.458984,627.964478 455.434448,722.934875 
	C455.431519,734.264587 455.452087,745.594543 455.380402,756.923828 
	C455.363647,759.574890 455.749390,761.597717 459.055084,761.497498 
	C465.363312,761.306213 471.673004,761.163513 478.844910,761.299622 
	C493.205597,761.207031 507.566254,761.114502 522.816223,761.353821 
	C538.311157,761.405945 553.806580,761.408936 569.300720,761.547791 
	C572.770081,761.578857 574.184937,760.139221 573.940430,756.754456 
	C573.820618,755.095886 573.890747,753.423096 573.889587,751.756714 
	C573.819397,649.106384 573.744202,546.455994 573.711792,443.805664 
	C573.710754,440.493622 574.148804,437.181427 574.626953,433.488495 
	C573.769104,432.953949 572.911255,432.419434 571.162720,432.198761 
	C565.033020,432.278687 558.903198,432.351685 552.773621,432.440063 
	C542.848450,432.583221 532.923401,432.736481 522.103210,432.578094 
	C511.399261,432.677246 500.695282,432.776398 489.100739,432.556763 
M975.957764,957.479858 
	C973.611511,953.410950 971.265198,949.341980 968.389709,944.355286 
	C965.063843,957.277466 956.778320,964.942017 944.585876,969.205383 
	C957.365601,972.932495 964.869263,981.120911 968.822266,993.258911 
	C973.187012,981.058777 981.052490,973.067932 992.366089,969.755249 
	C986.877808,965.726074 981.642944,961.882874 975.957764,957.479858 
z"/>
<path fill="#0E0E0E" opacity="1.000000" stroke="none" 
	d="
M1025.000000,2.500000 
	C683.969055,3.002078 342.938171,3.004156 1.453625,3.003117 
	C1.333333,2.333333 1.548027,1.216341 2.023962,1.090954 
	C3.114909,0.803541 4.333333,1.000000 5.500000,1.000000 
	C343.833344,1.000000 682.166687,0.998706 1020.500000,1.041232 
	C1022.000061,1.041421 1023.500000,1.666666 1025.000000,2.500000 
z"/>
<path fill="#E32E32" opacity="1.000000" stroke="none" 
	d="
M574.382202,433.869324 
	C574.148804,437.181427 573.710754,440.493622 573.711792,443.805664 
	C573.744202,546.455994 573.819397,649.106384 573.889587,751.756714 
	C573.890747,753.423096 573.820618,755.095886 573.940430,756.754456 
	C574.184937,760.139221 572.770081,761.578857 569.300720,761.547791 
	C553.806580,761.408936 538.311157,761.405945 522.188293,760.966980 
	C520.813232,759.919067 520.155701,759.096924 519.304260,758.623230 
	C514.045349,755.697510 511.902405,752.176147 513.723022,746.798218 
	C515.908142,740.343567 517.877930,734.087158 516.066101,727.212463 
	C515.788879,726.160767 516.245056,724.913940 516.370728,723.758240 
	C517.117310,716.895020 517.919922,710.036987 518.546387,703.162842 
	C518.623962,702.312134 517.616028,701.415222 517.377808,700.472290 
	C516.857666,698.413452 516.398315,696.326050 516.119080,694.223083 
	C515.778687,691.659302 515.288879,689.036804 515.505798,686.494507 
	C515.909363,681.764404 512.704895,676.114075 518.836182,672.617188 
	C519.497559,672.239990 519.577209,670.191833 519.354187,669.028625 
	C518.433960,664.229614 517.228027,659.485840 516.283325,654.690918 
	C516.071960,653.618164 516.538208,652.423889 516.613831,651.280334 
	C516.960327,646.042480 518.216736,640.649719 517.392639,635.598755 
	C516.085388,627.586731 515.119263,619.746765 517.042114,611.785461 
	C517.771790,608.764282 519.062927,605.877991 516.457336,602.993103 
	C515.879272,602.352966 516.527344,600.730896 516.308777,599.620483 
	C514.596069,590.918884 518.295349,582.152649 515.955017,573.466064 
	C515.309631,571.070740 513.948792,568.552490 514.255615,566.270752 
	C515.620361,556.120178 513.722839,545.542480 518.142090,535.777771 
	C518.517029,534.949341 518.379211,533.821472 518.273560,532.855225 
	C517.897217,529.413879 517.504517,525.971069 516.981812,522.549622 
	C516.310974,518.158081 515.777649,513.718567 514.692200,509.424316 
	C513.445740,504.493408 510.785614,499.782043 510.313965,494.825500 
	C509.612793,487.456268 510.127991,479.948975 510.427185,472.512573 
	C510.809509,463.011383 511.786896,453.526459 511.921814,444.026245 
	C511.990143,439.216339 513.956421,437.140015 518.330017,436.086639 
	C520.043701,435.673920 521.451294,433.990326 522.998291,432.885498 
	C532.923401,432.736481 542.848450,432.583221 552.773621,432.440063 
	C558.903198,432.351685 565.033020,432.278687 571.936890,432.437683 
	C573.268127,433.074188 573.825134,433.471771 574.382202,433.869324 
z"/>
<path fill="#EE6E31" opacity="1.000000" stroke="none" 
	d="
M354.980957,761.024475 
	C345.013794,761.181458 335.046997,761.366882 325.079376,761.484680 
	C319.085938,761.555603 313.083649,761.341492 307.099854,761.596558 
	C303.038239,761.769714 301.583923,760.413635 301.594330,756.200928 
	C301.679932,721.569641 301.538818,686.937866 301.520996,652.306274 
	C301.498810,609.185059 301.448486,566.063538 301.583405,522.942688 
	C301.625549,509.472351 300.233643,511.940948 312.644775,511.842896 
	C326.460968,511.733734 340.279083,511.869019 354.480408,512.408325 
	C354.369141,513.538757 353.966217,514.578796 353.363739,514.711243 
	C349.059387,515.657654 348.267303,517.968018 348.755371,522.319824 
	C349.900696,532.532104 351.237488,542.901123 350.609924,553.090576 
	C349.754852,566.973633 349.631500,580.695312 352.384888,594.307556 
	C355.332916,608.882141 354.786316,623.570923 354.667908,638.273132 
	C354.601410,646.529358 354.678192,654.787231 354.749573,663.043823 
	C354.828308,672.146057 355.058685,681.247681 355.070679,690.349731 
	C355.085876,701.910767 355.123352,713.476501 354.820251,725.031555 
	C354.579498,734.210388 357.092957,743.700745 351.895569,752.414001 
	C350.551453,754.667297 350.773376,756.832703 353.782379,758.074585 
	C354.470520,758.358582 354.596313,760.005066 354.980957,761.024475 
z"/>
<path fill="#F49130" opacity="1.000000" stroke="none" 
	d="
M222.974686,761.017822 
	C220.007050,761.181030 217.039474,761.483826 214.071762,761.484985 
	C192.976181,761.493286 171.880554,761.440002 150.232361,761.057007 
	C149.404266,760.489258 149.128784,760.270874 148.853287,760.052429 
	C148.702225,758.082947 148.419250,756.113464 148.419342,754.143982 
	C148.421921,701.787415 148.453690,649.430786 148.651276,596.617859 
	C148.822052,596.161499 149.156204,595.972656 149.324768,595.684814 
	C149.654922,594.528015 149.816498,593.658997 149.978073,592.790039 
	C152.602997,592.647095 155.227951,592.379822 157.852829,592.380737 
	C180.606888,592.388733 203.360931,592.445007 226.499084,593.044312 
	C223.824875,594.743469 220.842102,596.199585 217.691345,596.956360 
	C212.386230,598.230408 210.472198,601.732727 211.484390,606.868835 
	C212.694916,613.011353 213.007980,619.333923 213.651321,625.584473 
	C214.801727,636.761658 216.180893,647.924744 216.942825,659.129272 
	C217.502594,667.360779 217.472198,675.655396 217.250229,683.909668 
	C217.078308,690.303650 216.184341,696.677185 215.645279,703.062683 
	C215.086243,709.684509 214.564468,716.309570 214.033875,722.933777 
	C213.825455,725.535461 213.618958,728.137573 213.446198,730.741760 
	C213.328430,732.516785 213.636475,734.411316 213.117996,736.051392 
	C211.523102,741.096558 209.665726,746.061096 207.823242,751.024658 
	C206.788803,753.811584 207.579178,755.644409 210.465683,756.273132 
	C213.688080,756.974976 216.949554,757.529663 220.217392,757.978210 
	C222.119232,758.239258 224.214905,758.030518 222.974686,761.017822 
z"/>
<path fill="#6E3669" opacity="1.000000" stroke="none" 
	d="
M788.004761,760.965820 
	C782.975159,761.041443 777.945557,761.117004 772.416016,760.735291 
	C766.017334,751.049744 763.360840,740.978577 764.047546,730.036316 
	C764.369934,724.900330 764.691956,719.764282 765.001404,714.627502 
	C765.644592,703.950684 766.109863,693.259338 766.996948,682.603027 
	C767.376038,678.049072 769.180054,673.589294 769.357117,669.048584 
	C769.645264,661.659058 769.307922,654.227783 768.879700,646.834717 
	C768.651367,642.893433 767.307861,639.007812 767.176086,635.073303 
	C767.091309,632.541565 768.888916,629.946960 768.805115,627.414917 
	C768.577698,620.544739 767.479675,613.700256 767.319397,606.831787 
	C767.134521,598.907410 766.464661,590.722778 768.133240,583.118042 
	C769.333862,577.646423 771.382935,572.411804 770.996887,566.672668 
	C770.699585,562.252747 770.011597,557.830750 770.086548,553.419678 
	C770.290588,541.405884 767.058228,529.581177 769.695374,517.326721 
	C771.520325,508.846649 770.771118,499.791473 770.973816,490.988739 
	C771.243347,479.279602 771.216003,467.563324 771.516052,455.855255 
	C771.718201,447.968079 772.564392,440.090729 772.590210,432.207275 
	C772.630798,419.811188 772.039856,407.413330 772.064697,395.016907 
	C772.083557,385.599487 772.889465,376.183411 772.898499,366.766296 
	C772.908508,356.320984 772.186890,345.874939 772.196533,335.429626 
	C772.206421,324.662476 773.015686,313.893188 772.922913,303.129578 
	C772.815979,290.717712 774.940063,278.782318 779.455811,267.092499 
	C785.278931,267.087067 790.633911,267.109955 795.892639,267.478027 
	C794.864258,271.249481 793.475586,274.625488 793.091858,278.112061 
	C792.202332,286.195343 791.501892,294.323975 791.280090,302.449371 
	C791.051880,310.810547 791.433411,319.190887 791.636841,327.560730 
	C791.919556,339.193359 792.564392,350.825134 792.518005,362.455109 
	C792.486267,370.411926 791.228821,378.359070 791.073669,386.321320 
	C790.815857,399.544128 791.097168,412.776428 790.985229,426.003326 
	C790.706787,458.891144 790.280457,491.777863 790.049683,524.665955 
	C790.007751,530.635498 790.764771,536.606445 790.884094,542.582153 
	C791.079529,552.368164 791.009705,562.159119 791.141357,571.946777 
	C791.205933,576.747681 791.766296,581.557739 791.574707,586.342529 
	C791.315735,592.807495 790.286011,599.243225 790.066101,605.707825 
	C789.786499,613.928284 789.935730,622.165405 789.993286,630.394653 
	C790.056824,639.466614 790.390259,648.539551 790.299622,657.608948 
	C790.220459,665.538635 789.771118,673.466736 789.384521,681.390625 
	C788.960266,690.088562 788.054138,698.779602 788.024719,707.475891 
	C787.988525,718.153259 788.678650,728.831970 788.963867,739.512573 
	C789.012024,741.316772 789.206604,743.548401 788.298096,744.871460 
	C784.577271,750.290405 784.512634,755.534973 788.004761,760.965820 
z"/>
<path fill="#66366C" opacity="1.000000" stroke="none" 
	d="
M788.408081,761.084106 
	C784.512634,755.534973 784.577271,750.290405 788.298096,744.871460 
	C789.206604,743.548401 789.012024,741.316772 788.963867,739.512573 
	C788.678650,728.831970 787.988525,718.153259 788.024719,707.475891 
	C788.054138,698.779602 788.960266,690.088562 789.384521,681.390625 
	C789.771118,673.466736 790.220459,665.538635 790.299622,657.608948 
	C790.390259,648.539551 790.056824,639.466614 789.993286,630.394653 
	C789.935730,622.165405 789.786499,613.928284 790.066101,605.707825 
	C790.286011,599.243225 791.315735,592.807495 791.574707,586.342529 
	C791.766296,581.557739 791.205933,576.747681 791.141357,571.946777 
	C791.009705,562.159119 791.079529,552.368164 790.884094,542.582153 
	C790.764771,536.606445 790.007751,530.635498 790.049683,524.665955 
	C790.280457,491.777863 790.706787,458.891144 790.985229,426.003326 
	C791.097168,412.776428 790.815857,399.544128 791.073669,386.321320 
	C791.228821,378.359070 792.486267,370.411926 792.518005,362.455109 
	C792.564392,350.825134 791.919556,339.193359 791.636841,327.560730 
	C791.433411,319.190887 791.051880,310.810547 791.280090,302.449371 
	C791.501892,294.323975 792.202332,286.195343 793.091858,278.112061 
	C793.475586,274.625488 794.864258,271.249481 796.089355,267.279480 
	C796.613525,266.242554 796.844727,265.749390 797.075928,265.256226 
	C803.403625,265.262939 809.731262,265.269653 816.498596,265.730652 
	C815.471436,269.411560 812.961060,272.560669 812.714539,275.877991 
	C811.508789,292.099762 810.764404,308.361328 810.181885,324.620453 
	C810.017334,329.212158 811.375000,333.849670 811.304382,338.455017 
	C811.052124,354.912567 810.304688,371.362946 810.089111,387.820557 
	C809.865173,404.921234 810.019958,422.027191 810.053345,439.130768 
	C810.064392,444.788208 810.226990,450.445190 810.295654,456.102692 
	C810.471191,470.570282 810.765076,485.038025 810.761536,499.505676 
	C810.758240,512.940491 810.157410,526.378784 810.336243,539.808716 
	C810.473145,550.092712 811.842468,560.363770 811.895935,570.644592 
	C811.970886,585.053833 811.150574,599.465515 811.042664,613.878540 
	C810.879395,635.678406 811.000183,657.480347 811.000000,679.281433 
	C810.999878,688.922852 811.061707,698.564819 810.976685,708.205505 
	C810.919678,714.665466 810.565796,721.122681 810.507263,727.582642 
	C810.454712,733.382996 811.700195,739.439270 810.407898,744.919189 
	C808.969604,751.018311 808.329163,756.188721 812.846008,761.025208 
	C804.834473,761.084290 796.822937,761.143311 788.408081,761.084106 
z"/>
<path fill="#E73530" opacity="1.000000" stroke="none" 
	d="
M522.550781,432.731812 
	C521.451294,433.990326 520.043701,435.673920 518.330017,436.086639 
	C513.956421,437.140015 511.990143,439.216339 511.921814,444.026245 
	C511.786896,453.526459 510.809509,463.011383 510.427185,472.512573 
	C510.127991,479.948975 509.612793,487.456268 510.313965,494.825500 
	C510.785614,499.782043 513.445740,504.493408 514.692200,509.424316 
	C515.777649,513.718567 516.310974,518.158081 516.981812,522.549622 
	C517.504517,525.971069 517.897217,529.413879 518.273560,532.855225 
	C518.379211,533.821472 518.517029,534.949341 518.142090,535.777771 
	C513.722839,545.542480 515.620361,556.120178 514.255615,566.270752 
	C513.948792,568.552490 515.309631,571.070740 515.955017,573.466064 
	C518.295349,582.152649 514.596069,590.918884 516.308777,599.620483 
	C516.527344,600.730896 515.879272,602.352966 516.457336,602.993103 
	C519.062927,605.877991 517.771790,608.764282 517.042114,611.785461 
	C515.119263,619.746765 516.085388,627.586731 517.392639,635.598755 
	C518.216736,640.649719 516.960327,646.042480 516.613831,651.280334 
	C516.538208,652.423889 516.071960,653.618164 516.283325,654.690918 
	C517.228027,659.485840 518.433960,664.229614 519.354187,669.028625 
	C519.577209,670.191833 519.497559,672.239990 518.836182,672.617188 
	C512.704895,676.114075 515.909363,681.764404 515.505798,686.494507 
	C515.288879,689.036804 515.778687,691.659302 516.119080,694.223083 
	C516.398315,696.326050 516.857666,698.413452 517.377808,700.472290 
	C517.616028,701.415222 518.623962,702.312134 518.546387,703.162842 
	C517.919922,710.036987 517.117310,716.895020 516.370728,723.758240 
	C516.245056,724.913940 515.788879,726.160767 516.066101,727.212463 
	C517.877930,734.087158 515.908142,740.343567 513.723022,746.798218 
	C511.902405,752.176147 514.045349,755.697510 519.304260,758.623230 
	C520.155701,759.096924 520.813232,759.919067 521.743652,760.801025 
	C507.566254,761.114502 493.205597,761.207031 478.417053,760.719360 
	C477.816162,755.639038 478.261047,751.559204 482.970581,749.082520 
	C484.083160,748.497375 484.834473,746.297363 484.896271,744.804871 
	C485.146179,738.769958 484.883820,732.713257 485.149780,726.679626 
	C485.430695,720.306580 486.314117,713.958374 486.542236,707.585205 
	C486.839447,699.283203 486.881622,690.966064 486.794647,682.657898 
	C486.685455,672.228760 486.203247,661.803040 486.133972,651.374207 
	C486.088379,644.516235 487.793610,637.592285 484.834991,630.890869 
	C484.420258,629.951538 484.634705,628.565796 484.948120,627.501526 
	C486.747284,621.392639 488.189697,615.331787 484.788177,609.263794 
	C484.492767,608.736816 484.537994,607.968262 484.566223,607.318054 
	C485.030731,596.623230 485.664581,585.933105 485.934784,575.233704 
	C486.060028,570.276306 485.334961,565.303406 485.262268,560.333679 
	C485.119843,550.596252 485.196930,540.855713 485.123627,531.116943 
	C485.029907,518.668701 483.422882,506.233063 484.997833,493.766479 
	C485.408051,490.519287 484.891357,487.138336 485.444763,483.929962 
	C486.234344,479.351990 483.569275,474.283081 487.487396,470.101410 
	C488.128479,469.417206 488.076416,467.843445 487.953094,466.723999 
	C487.372711,461.456848 486.836029,456.173767 485.940125,450.955414 
	C484.919342,445.009644 483.211761,439.072784 489.502594,434.756561 
	C489.905823,434.479828 489.839325,433.518463 489.991333,432.875580 
	C500.695282,432.776398 511.399261,432.677246 522.550781,432.731812 
z"/>
<path fill="#5B346E" opacity="1.000000" stroke="none" 
	d="
M813.298706,761.195435 
	C808.329163,756.188721 808.969604,751.018311 810.407898,744.919189 
	C811.700195,739.439270 810.454712,733.382996 810.507263,727.582642 
	C810.565796,721.122681 810.919678,714.665466 810.976685,708.205505 
	C811.061707,698.564819 810.999878,688.922852 811.000000,679.281433 
	C811.000183,657.480347 810.879395,635.678406 811.042664,613.878540 
	C811.150574,599.465515 811.970886,585.053833 811.895935,570.644592 
	C811.842468,560.363770 810.473145,550.092712 810.336243,539.808716 
	C810.157410,526.378784 810.758240,512.940491 810.761536,499.505676 
	C810.765076,485.038025 810.471191,470.570282 810.295654,456.102692 
	C810.226990,450.445190 810.064392,444.788208 810.053345,439.130768 
	C810.019958,422.027191 809.865173,404.921234 810.089111,387.820557 
	C810.304688,371.362946 811.052124,354.912567 811.304382,338.455017 
	C811.375000,333.849670 810.017334,329.212158 810.181885,324.620453 
	C810.764404,308.361328 811.508789,292.099762 812.714539,275.877991 
	C812.961060,272.560669 815.471436,269.411560 816.949219,265.853943 
	C819.012146,265.402100 821.064148,265.281219 823.733948,265.538635 
	C827.557800,266.312042 830.763855,266.707184 833.895996,267.448944 
	C833.421387,271.036713 832.787903,274.268707 832.660339,277.520569 
	C832.095459,291.925751 831.669617,306.336487 831.205811,320.745605 
	C830.879883,330.871124 830.603149,340.998230 830.250366,351.122772 
	C829.932983,360.233948 829.174866,369.347198 829.289734,378.450958 
	C829.397461,386.987549 830.849976,395.510468 830.896545,404.043793 
	C830.972595,417.969147 829.382141,431.967834 830.342407,445.807373 
	C831.463928,461.971924 830.514954,477.948639 829.545166,494.001465 
	C829.286743,498.278931 829.355286,502.582581 829.421509,506.871887 
	C829.563782,516.086365 829.842346,525.298645 829.990479,534.513062 
	C830.142334,543.959167 830.305237,553.406982 830.277893,562.853516 
	C830.251953,571.778564 829.655762,580.712769 829.920227,589.624817 
	C830.166260,597.913635 831.697449,606.172729 831.798096,614.455444 
	C831.942688,626.358337 831.326660,638.271484 830.983154,650.178772 
	C830.892517,653.321350 830.360596,656.466309 830.459290,659.596680 
	C830.877869,672.869873 831.788574,686.135559 831.885559,699.408691 
	C831.982727,712.709045 831.275513,726.014038 831.022278,739.318909 
	C830.897217,745.889221 831.000671,752.463867 831.000671,759.494568 
	C829.406067,759.858154 826.751343,760.463501 824.096558,761.068848 
	C820.648193,761.167847 817.199829,761.266785 813.298706,761.195435 
z"/>
<path fill="#E83D2F" opacity="1.000000" stroke="none" 
	d="
M489.546051,432.716187 
	C489.839325,433.518463 489.905823,434.479828 489.502594,434.756561 
	C483.211761,439.072784 484.919342,445.009644 485.940125,450.955414 
	C486.836029,456.173767 487.372711,461.456848 487.953094,466.723999 
	C488.076416,467.843445 488.128479,469.417206 487.487396,470.101410 
	C483.569275,474.283081 486.234344,479.351990 485.444763,483.929962 
	C484.891357,487.138336 485.408051,490.519287 484.997833,493.766479 
	C483.422882,506.233063 485.029907,518.668701 485.123627,531.116943 
	C485.196930,540.855713 485.119843,550.596252 485.262268,560.333679 
	C485.334961,565.303406 486.060028,570.276306 485.934784,575.233704 
	C485.664581,585.933105 485.030731,596.623230 484.566223,607.318054 
	C484.537994,607.968262 484.492767,608.736816 484.788177,609.263794 
	C488.189697,615.331787 486.747284,621.392639 484.948120,627.501526 
	C484.634705,628.565796 484.420258,629.951538 484.834991,630.890869 
	C487.793610,637.592285 486.088379,644.516235 486.133972,651.374207 
	C486.203247,661.803040 486.685455,672.228760 486.794647,682.657898 
	C486.881622,690.966064 486.839447,699.283203 486.542236,707.585205 
	C486.314117,713.958374 485.430695,720.306580 485.149780,726.679626 
	C484.883820,732.713257 485.146179,738.769958 484.896271,744.804871 
	C484.834473,746.297363 484.083160,748.497375 482.970581,749.082520 
	C478.261047,751.559204 477.816162,755.639038 477.985657,760.569824 
	C471.673004,761.163513 465.363312,761.306213 459.055084,761.497498 
	C455.749390,761.597717 455.363647,759.574890 455.380402,756.923828 
	C455.452087,745.594543 455.431519,734.264587 455.434448,722.934875 
	C455.458984,627.964478 455.508087,532.994019 455.419189,438.023712 
	C455.415070,433.614044 456.713654,432.176331 461.119354,432.330627 
	C470.437683,432.656982 479.772614,432.509766 489.546051,432.716187 
z"/>
<path fill="#B43958" opacity="1.000000" stroke="none" 
	d="
M674.994873,349.033630 
	C678.372009,348.939575 681.749084,348.845490 685.635376,349.253052 
	C687.112061,354.926331 688.016296,360.111328 689.093872,365.260010 
	C689.348389,366.475891 689.888184,368.164520 690.803955,368.623505 
	C696.966614,371.712341 695.824524,377.265869 694.249817,381.654816 
	C692.212708,387.332764 691.855652,392.830627 691.897095,398.692993 
	C691.960449,407.656433 691.140320,416.623138 691.071228,425.591370 
	C691.006348,434.015808 691.811584,442.455963 691.548828,450.867798 
	C691.146423,463.749329 689.434631,476.608246 691.968750,489.467102 
	C692.541199,492.372131 693.022217,495.445435 692.700867,498.347778 
	C691.796326,506.518311 690.319824,514.624451 689.351929,522.789612 
	C689.007202,525.698364 689.770691,528.729370 689.515015,531.659790 
	C688.843994,539.350647 689.440186,546.851379 691.314575,554.363342 
	C692.335205,558.453674 692.929932,562.808960 692.742737,567.001282 
	C692.515259,572.096191 690.818054,577.121582 690.545898,582.219177 
	C690.009460,592.268799 689.244019,602.405518 689.995239,612.399353 
	C690.933044,624.874023 689.685547,637.139954 688.873291,649.492920 
	C688.434082,656.172119 688.276184,662.895020 688.470459,669.584290 
	C688.721008,678.208435 689.541870,686.814453 689.935364,695.436646 
	C690.122559,699.538269 690.150574,703.681763 689.795349,707.766724 
	C688.895325,718.119080 687.965210,728.478943 686.607544,738.777893 
	C685.620178,746.267822 681.884155,753.965271 689.812378,760.049072 
	C690.007019,760.198486 689.945312,760.681885 690.003113,761.009521 
	C679.594604,761.117432 669.186035,761.225403 658.392334,760.709534 
	C658.990723,751.620667 659.963074,743.154175 660.960449,734.690735 
	C662.297852,723.342041 664.011292,712.022949 664.882629,700.639038 
	C665.503479,692.527527 664.600586,684.304871 665.112793,676.178101 
	C665.652710,667.613281 667.086670,659.105957 668.083496,650.568054 
	C668.330322,648.453491 668.883240,646.217407 668.468262,644.208008 
	C665.481384,629.746399 666.524353,615.143005 666.892883,600.595459 
	C667.296631,584.658386 668.411621,568.740417 668.929321,552.804749 
	C669.117188,547.021729 668.121399,541.200684 668.302002,535.416870 
	C668.531921,528.054077 669.653015,520.720886 669.937988,513.357483 
	C670.238403,505.596466 669.782654,497.806122 670.083313,490.045105 
	C670.294678,484.587585 671.703552,479.160553 671.736023,473.714905 
	C671.843689,455.636139 670.031006,437.394379 671.896057,419.522095 
	C673.606995,403.126801 671.168091,387.475861 669.441711,371.530640 
	C668.565735,363.439606 671.264282,356.070374 674.994873,349.033630 
z"/>
<path fill="#F28530" opacity="1.000000" stroke="none" 
	d="
M223.414062,761.195190 
	C224.214905,758.030518 222.119232,758.239258 220.217392,757.978210 
	C216.949554,757.529663 213.688080,756.974976 210.465683,756.273132 
	C207.579178,755.644409 206.788803,753.811584 207.823242,751.024658 
	C209.665726,746.061096 211.523102,741.096558 213.117996,736.051392 
	C213.636475,734.411316 213.328430,732.516785 213.446198,730.741760 
	C213.618958,728.137573 213.825455,725.535461 214.033875,722.933777 
	C214.564468,716.309570 215.086243,709.684509 215.645279,703.062683 
	C216.184341,696.677185 217.078308,690.303650 217.250229,683.909668 
	C217.472198,675.655396 217.502594,667.360779 216.942825,659.129272 
	C216.180893,647.924744 214.801727,636.761658 213.651321,625.584473 
	C213.007980,619.333923 212.694916,613.011353 211.484390,606.868835 
	C210.472198,601.732727 212.386230,598.230408 217.691345,596.956360 
	C220.842102,596.199585 223.824875,594.743469 226.940063,593.219849 
	C239.448853,592.664062 251.902008,592.377869 264.350403,592.517151 
	C265.415283,592.528992 267.297821,595.339294 267.353668,596.901367 
	C267.639008,604.878235 267.423462,612.872131 267.429382,620.860046 
	C267.462555,665.792480 267.510193,710.724915 267.543701,755.657349 
	C267.544586,756.819580 267.439758,757.981873 266.997986,759.715332 
	C266.366516,760.494141 266.170349,760.740723 266.023224,761.026428 
	C256.773956,761.192566 247.525162,761.403320 238.275177,761.506348 
	C233.469025,761.559937 228.660736,761.423218 223.414062,761.195190 
z"/>
<path fill="#483271" opacity="1.000000" stroke="none" 
	d="
M872.002319,760.969299 
	C866.297058,761.085815 860.591675,761.202271 854.384399,760.883057 
	C853.055115,758.513733 851.515991,756.580811 851.514221,754.646545 
	C851.501770,740.764099 851.859253,726.881958 851.983826,712.998657 
	C852.079041,702.387634 852.107605,691.773865 851.988464,681.163330 
	C851.488281,636.617737 850.883118,592.073364 850.415100,547.527466 
	C850.333557,539.770813 850.912354,532.007751 850.850464,524.250305 
	C850.784607,515.991394 850.050354,507.734222 850.095154,499.478973 
	C850.156189,488.215118 850.635376,476.952271 851.018433,465.691864 
	C851.249390,458.902466 851.833801,452.120697 851.910645,445.331512 
	C852.028992,434.884155 851.698792,424.431610 851.822510,413.984406 
	C852.138306,387.317688 852.602966,360.652771 852.999451,333.986969 
	C853.063416,329.687866 852.950623,325.381958 853.149292,321.089813 
	C853.702271,309.140411 854.588501,297.202515 854.920471,285.248352 
	C855.111877,278.357025 855.506042,271.647888 858.965515,265.489868 
	C864.401489,265.310760 869.838013,265.146393 875.273254,264.946777 
	C878.282654,264.836243 879.362671,266.418365 879.328674,269.231079 
	C879.260803,274.845306 879.279602,280.460541 878.817261,286.489380 
	C877.043152,285.452423 875.714417,284.001526 873.806091,281.917725 
	C872.920166,284.560120 871.781982,286.636047 871.580017,288.799408 
	C870.917969,295.888763 870.444458,303.004211 870.176636,310.120087 
	C869.676514,323.408630 869.331726,336.703522 868.996338,349.997650 
	C868.620605,364.893433 868.333862,379.791443 867.995605,394.688202 
	C867.672363,408.925446 867.248779,423.160950 867.018677,437.399628 
	C866.618652,462.161591 866.306580,486.925018 866.009583,511.688507 
	C865.816956,527.750427 865.628601,543.813293 865.604858,559.875977 
	C865.588318,571.088989 865.802002,582.303345 866.014465,593.515198 
	C866.127441,599.481812 866.580627,605.442688 866.660767,611.409058 
	C866.809875,622.504700 866.724609,633.603516 866.869263,644.699280 
	C867.157593,666.808594 867.687439,688.915894 867.813965,711.025757 
	C867.879395,722.462952 866.973389,733.908936 867.151306,745.340942 
	C867.230896,750.453186 865.519836,756.647644 871.809753,760.015930 
	C871.991943,760.113403 871.943359,760.641846 872.002319,760.969299 
z"/>
<path fill="#A53A60" opacity="1.000000" stroke="none" 
	d="
M726.388306,352.992889 
	C726.702087,354.757568 727.289673,356.522064 727.290649,358.286926 
	C727.357239,479.592255 727.376770,600.897644 727.400574,722.203003 
	C727.402771,733.362183 727.277771,744.523621 727.476379,755.679321 
	C727.552124,759.932800 726.182434,761.822571 721.741150,761.567200 
	C716.426880,761.261658 711.089294,761.363525 705.348694,760.767700 
	C703.147278,756.716858 703.864929,753.795654 705.551514,750.085999 
	C707.667908,745.431030 709.649597,739.420227 708.466980,734.823608 
	C705.827393,724.563354 707.891602,714.563477 708.487793,704.643921 
	C709.358093,690.163086 708.723572,675.872803 707.717529,661.482117 
	C707.062561,652.113037 707.040466,642.656799 707.438354,633.269409 
	C707.814941,624.383667 709.394897,615.553528 709.915955,606.667908 
	C710.391541,598.557434 709.572144,590.348145 710.359253,582.283508 
	C711.929626,566.193909 711.958313,550.150635 710.759644,534.065918 
	C710.637878,532.431519 710.614868,530.775513 710.720642,529.140808 
	C711.427124,518.223877 712.392090,507.319153 712.864319,496.392792 
	C713.415405,483.642273 713.634888,470.875061 713.831787,458.112549 
	C713.946655,450.665894 713.465881,443.204132 713.744263,435.767548 
	C714.052307,427.539093 714.246094,419.200806 715.804138,411.165222 
	C716.708008,406.503265 716.936523,402.406158 715.310059,398.088013 
	C714.904846,397.012177 714.307861,395.922607 714.249146,394.815460 
	C713.671021,383.913605 712.879028,373.065704 714.829529,362.130585 
	C716.520874,352.648010 717.048035,351.744476 726.388306,352.992889 
z"/>
<path fill="#C83648" opacity="1.000000" stroke="none" 
	d="
M628.006775,349.181213 
	C629.409790,349.069519 630.812744,348.957825 632.764771,349.298492 
	C634.543335,350.166504 635.772888,350.582123 636.973206,351.377869 
	C637.512878,354.872559 637.070190,358.851868 638.848633,360.932648 
	C643.393982,366.250519 645.665283,372.002045 644.932312,378.780914 
	C644.255981,385.034912 642.832642,391.205963 642.081116,397.454773 
	C641.599121,401.462219 641.533203,405.550995 641.663757,409.590942 
	C641.768982,412.847290 642.981995,416.119080 642.777649,419.325043 
	C642.010559,431.358917 640.787964,443.362946 639.896179,455.390045 
	C639.522583,460.428223 639.492493,465.495117 639.409912,470.550659 
	C639.334412,475.176544 639.512695,479.808197 639.371094,484.430939 
	C639.204285,489.874908 638.680115,495.309143 638.560669,500.753052 
	C638.457458,505.458282 639.015198,510.191437 638.710388,514.875122 
	C638.389160,519.811768 636.268372,524.853088 636.894897,529.589233 
	C639.006897,545.553162 635.882751,561.246521 635.430115,577.059753 
	C635.249939,583.355835 634.229980,589.629089 634.079712,595.924377 
	C633.950684,601.330139 634.927185,606.770386 634.690735,612.163696 
	C634.151367,624.467163 636.761047,636.847656 633.160461,649.123535 
	C631.904663,653.405212 633.505371,658.532715 632.216858,662.794800 
	C630.768799,667.584778 631.777100,671.406311 633.232056,675.770569 
	C634.670837,680.086548 636.076233,684.875793 635.623047,689.263916 
	C634.688232,698.314636 632.540833,707.243225 630.792175,716.202576 
	C630.582397,717.277710 629.880737,718.331421 629.187988,719.225342 
	C625.032410,724.588379 625.012878,725.321045 629.238281,730.770447 
	C633.637268,736.443665 632.524902,745.466858 627.289734,750.196228 
	C624.732849,752.506104 622.877075,755.592041 620.703979,758.326782 
	C621.086060,758.882874 621.468140,759.439026 621.850220,759.995117 
	C618.232544,759.995117 614.614868,759.995117 610.867798,759.690918 
	C610.024963,758.921509 609.311523,758.456360 608.598083,757.991150 
	C608.531250,757.546448 608.464478,757.101746 608.868713,756.214111 
	C611.784363,753.812012 611.372192,752.242126 608.687256,750.981812 
	C608.609497,750.541565 608.531738,750.101318 608.945862,749.179565 
	C609.957581,746.714233 610.895691,744.737366 610.928467,742.745544 
	C611.120361,731.093567 610.936035,719.434570 611.187256,707.784546 
	C611.667358,685.520447 612.360901,663.260925 612.950317,640.999023 
	C613.050171,637.226379 612.776611,633.419373 613.185608,629.684021 
	C614.318420,619.337952 615.830261,609.033569 616.984741,598.689575 
	C618.078247,588.892517 618.950867,579.069763 619.835510,569.250732 
	C620.232605,564.843445 620.487915,560.420471 620.691406,555.999329 
	C621.033325,548.568420 620.950623,541.100830 621.672546,533.709839 
	C622.282410,527.466614 623.948303,521.334106 624.832642,515.107910 
	C625.570007,509.916687 625.490784,504.595154 626.425720,499.449921 
	C627.608948,492.938538 628.011719,486.672150 625.106934,480.482300 
	C624.518982,479.229492 624.106079,477.436768 624.545227,476.233398 
	C627.585327,467.903381 624.702515,458.157501 630.704407,450.554932 
	C630.973145,450.214539 630.858887,449.584381 630.959290,449.096680 
	C633.408569,437.198578 632.740112,425.413818 630.537842,413.502777 
	C629.286743,406.735992 628.329712,399.515686 629.389832,392.841003 
	C630.317566,386.999908 630.468079,381.841400 628.164490,376.529327 
	C625.497620,370.379303 626.034973,364.455719 628.433350,358.214478 
	C629.423218,355.638397 628.215149,352.217743 628.006775,349.181213 
z"/>
<path fill="#EE5B32" opacity="1.000000" stroke="none" 
	d="
M402.952850,761.041321 
	C393.614471,761.156372 384.276062,761.271484 374.694214,761.023193 
	C375.315796,760.220581 376.180817,759.781250 377.045868,759.341980 
	C376.535858,759.225281 376.025848,759.108582 375.515839,758.991882 
	C375.936127,755.176514 376.300690,751.354004 376.790802,747.547668 
	C377.401031,742.808594 378.852081,738.045837 378.617279,733.359619 
	C378.231567,725.660461 376.965942,717.984802 375.734436,710.353638 
	C374.160461,700.600342 375.198975,690.861389 376.871124,681.402344 
	C378.940704,669.695435 378.202606,658.111023 376.379944,646.776428 
	C374.333862,634.052612 374.960358,621.551514 375.374969,608.874634 
	C375.629608,601.088623 374.922028,593.158997 373.641968,585.460938 
	C371.669006,573.596069 368.813293,561.827820 369.384827,549.729370 
	C369.820374,540.510010 371.353333,531.345032 371.881012,522.126221 
	C372.101959,518.265930 373.498260,516.436096 377.062866,515.404419 
	C378.856140,514.885376 380.356110,513.352966 381.988708,512.278809 
	C386.697876,512.159546 391.406982,512.040222 396.509705,512.420654 
	C394.234009,515.870361 395.650482,519.120239 395.758545,522.496826 
	C396.126251,533.985413 395.706085,545.496887 395.815338,556.997498 
	C395.851074,560.757507 396.629547,564.506592 396.989746,568.268250 
	C397.575256,574.383484 398.159882,580.500061 398.629883,586.624878 
	C399.443024,597.221313 401.396545,607.925110 400.538208,618.392578 
	C399.861664,626.642944 400.663605,634.603088 400.964020,642.689087 
	C401.183655,648.600586 401.562927,654.506042 401.813629,660.416626 
	C401.897064,662.384277 401.726135,664.362488 401.801697,666.330872 
	C402.171417,675.964905 402.673248,685.594788 402.932587,695.231445 
	C403.016663,698.355591 402.109558,701.527039 402.353088,704.621887 
	C402.817139,710.520203 404.075134,716.360046 404.459106,722.259583 
	C404.855103,728.343567 404.128815,734.520874 404.781219,740.561462 
	C405.324951,745.596252 404.593628,748.832581 399.249786,750.461853 
	C396.375000,751.338379 393.862000,753.401611 391.185760,754.929382 
	C391.374786,755.572937 391.563812,756.216492 391.752838,756.859985 
	C394.110992,757.242004 396.561615,757.349060 398.795380,758.100708 
	C400.336517,758.619324 401.577667,760.029541 402.952850,761.041321 
z"/>
<path fill="#53336F" opacity="1.000000" stroke="none" 
	d="
M824.529419,761.236206 
	C826.751343,760.463501 829.406067,759.858154 831.000671,759.494568 
	C831.000671,752.463867 830.897217,745.889221 831.022278,739.318909 
	C831.275513,726.014038 831.982727,712.709045 831.885559,699.408691 
	C831.788574,686.135559 830.877869,672.869873 830.459290,659.596680 
	C830.360596,656.466309 830.892517,653.321350 830.983154,650.178772 
	C831.326660,638.271484 831.942688,626.358337 831.798096,614.455444 
	C831.697449,606.172729 830.166260,597.913635 829.920227,589.624817 
	C829.655762,580.712769 830.251953,571.778564 830.277893,562.853516 
	C830.305237,553.406982 830.142334,543.959167 829.990479,534.513062 
	C829.842346,525.298645 829.563782,516.086365 829.421509,506.871887 
	C829.355286,502.582581 829.286743,498.278931 829.545166,494.001465 
	C830.514954,477.948639 831.463928,461.971924 830.342407,445.807373 
	C829.382141,431.967834 830.972595,417.969147 830.896545,404.043793 
	C830.849976,395.510468 829.397461,386.987549 829.289734,378.450958 
	C829.174866,369.347198 829.932983,360.233948 830.250366,351.122772 
	C830.603149,340.998230 830.879883,330.871124 831.205811,320.745605 
	C831.669617,306.336487 832.095459,291.925751 832.660339,277.520569 
	C832.787903,274.268707 833.421387,271.036713 834.270813,267.420227 
	C836.140259,266.463531 837.560913,265.882172 838.981506,265.300842 
	C842.333374,265.295593 845.685303,265.290344 849.342285,265.679993 
	C848.558228,268.805145 846.690125,271.488373 846.521973,274.274231 
	C845.955811,283.654724 846.212524,293.082336 845.758606,302.472748 
	C844.620422,326.017029 842.936218,349.539612 842.131287,373.093414 
	C841.707092,385.508667 842.882202,397.970337 842.928467,410.412567 
	C842.963013,419.684235 842.046997,428.959595 842.087219,438.231018 
	C842.148315,452.304565 842.995117,466.378632 842.886353,480.447662 
	C842.812134,490.055847 841.208496,499.652008 841.130310,509.260406 
	C841.018005,523.049927 841.757446,536.844482 841.961609,550.639465 
	C842.054688,556.934082 841.680542,563.234192 841.621399,569.532776 
	C841.552856,576.824097 841.531372,584.117249 841.607178,591.408386 
	C841.756836,605.794617 842.090942,620.179626 842.144958,634.565857 
	C842.176086,642.863220 841.422485,651.175354 841.708740,659.457092 
	C842.178101,673.037170 843.498596,686.589417 843.891846,700.169922 
	C844.136475,708.618225 843.134521,717.095276 843.071167,725.562317 
	C843.027710,731.360352 844.335571,737.232910 843.765930,742.945190 
	C843.148010,749.142639 842.614563,755.107483 844.942200,761.015259 
	C838.282227,761.144653 831.622192,761.274048 824.529419,761.236206 
z"/>
<path fill="#443172" opacity="1.000000" stroke="none" 
	d="
M872.314392,761.134644 
	C871.943359,760.641846 871.991943,760.113403 871.809753,760.015930 
	C865.519836,756.647644 867.230896,750.453186 867.151306,745.340942 
	C866.973389,733.908936 867.879395,722.462952 867.813965,711.025757 
	C867.687439,688.915894 867.157593,666.808594 866.869263,644.699280 
	C866.724609,633.603516 866.809875,622.504700 866.660767,611.409058 
	C866.580627,605.442688 866.127441,599.481812 866.014465,593.515198 
	C865.802002,582.303345 865.588318,571.088989 865.604858,559.875977 
	C865.628601,543.813293 865.816956,527.750427 866.009583,511.688507 
	C866.306580,486.925018 866.618652,462.161591 867.018677,437.399628 
	C867.248779,423.160950 867.672363,408.925446 867.995605,394.688202 
	C868.333862,379.791443 868.620605,364.893433 868.996338,349.997650 
	C869.331726,336.703522 869.676514,323.408630 870.176636,310.120087 
	C870.444458,303.004211 870.917969,295.888763 871.580017,288.799408 
	C871.781982,286.636047 872.920166,284.560120 873.806091,281.917725 
	C875.714417,284.001526 877.043152,285.452423 878.736389,286.952759 
	C879.315979,289.647980 879.718933,292.293762 879.719482,294.939606 
	C879.748169,447.374512 879.744568,599.809448 879.729919,752.244324 
	C879.729797,753.903748 879.544128,755.563232 879.005371,757.633911 
	C878.047485,758.442505 877.529480,758.839844 877.011475,759.237183 
	C877.685486,759.490662 878.359497,759.744080 879.033447,759.997559 
	C876.897766,760.431702 874.762146,760.865784 872.314392,761.134644 
z"/>
<path fill="#EE6332" opacity="1.000000" stroke="none" 
	d="
M381.549133,512.104431 
	C380.356110,513.352966 378.856140,514.885376 377.062866,515.404419 
	C373.498260,516.436096 372.101959,518.265930 371.881012,522.126221 
	C371.353333,531.345032 369.820374,540.510010 369.384827,549.729370 
	C368.813293,561.827820 371.669006,573.596069 373.641968,585.460938 
	C374.922028,593.158997 375.629608,601.088623 375.374969,608.874634 
	C374.960358,621.551514 374.333862,634.052612 376.379944,646.776428 
	C378.202606,658.111023 378.940704,669.695435 376.871124,681.402344 
	C375.198975,690.861389 374.160461,700.600342 375.734436,710.353638 
	C376.965942,717.984802 378.231567,725.660461 378.617279,733.359619 
	C378.852081,738.045837 377.401031,742.808594 376.790802,747.547668 
	C376.300690,751.354004 375.936127,755.176514 375.515839,758.991882 
	C376.025848,759.108582 376.535858,759.225281 377.045868,759.341980 
	C376.180817,759.781250 375.315796,760.220581 374.261322,760.850891 
	C368.001343,761.153015 361.930786,761.264099 355.420593,761.199829 
	C354.596313,760.005066 354.470520,758.358582 353.782379,758.074585 
	C350.773376,756.832703 350.551453,754.667297 351.895569,752.414001 
	C357.092957,743.700745 354.579498,734.210388 354.820251,725.031555 
	C355.123352,713.476501 355.085876,701.910767 355.070679,690.349731 
	C355.058685,681.247681 354.828308,672.146057 354.749573,663.043823 
	C354.678192,654.787231 354.601410,646.529358 354.667908,638.273132 
	C354.786316,623.570923 355.332916,608.882141 352.384888,594.307556 
	C349.631500,580.695312 349.754852,566.973633 350.609924,553.090576 
	C351.237488,542.901123 349.900696,532.532104 348.755371,522.319824 
	C348.267303,517.968018 349.059387,515.657654 353.363739,514.711243 
	C353.966217,514.578796 354.369141,513.538757 354.919830,512.580566 
	C363.686676,512.138245 372.398132,512.034180 381.549133,512.104431 
z"/>
<path fill="#C3364C" opacity="1.000000" stroke="none" 
	d="
M610.997192,759.995117 
	C614.614868,759.995117 618.232544,759.995117 621.850220,759.995117 
	C621.468140,759.439026 621.086060,758.882874 620.703979,758.326782 
	C622.877075,755.592041 624.732849,752.506104 627.289734,750.196228 
	C632.524902,745.466858 633.637268,736.443665 629.238281,730.770447 
	C625.012878,725.321045 625.032410,724.588379 629.187988,719.225342 
	C629.880737,718.331421 630.582397,717.277710 630.792175,716.202576 
	C632.540833,707.243225 634.688232,698.314636 635.623047,689.263916 
	C636.076233,684.875793 634.670837,680.086548 633.232056,675.770569 
	C631.777100,671.406311 630.768799,667.584778 632.216858,662.794800 
	C633.505371,658.532715 631.904663,653.405212 633.160461,649.123535 
	C636.761047,636.847656 634.151367,624.467163 634.690735,612.163696 
	C634.927185,606.770386 633.950684,601.330139 634.079712,595.924377 
	C634.229980,589.629089 635.249939,583.355835 635.430115,577.059753 
	C635.882751,561.246521 639.006897,545.553162 636.894897,529.589233 
	C636.268372,524.853088 638.389160,519.811768 638.710388,514.875122 
	C639.015198,510.191437 638.457458,505.458282 638.560669,500.753052 
	C638.680115,495.309143 639.204285,489.874908 639.371094,484.430939 
	C639.512695,479.808197 639.334412,475.176544 639.409912,470.550659 
	C639.492493,465.495117 639.522583,460.428223 639.896179,455.390045 
	C640.787964,443.362946 642.010559,431.358917 642.777649,419.325043 
	C642.981995,416.119080 641.768982,412.847290 641.663757,409.590942 
	C641.533203,405.550995 641.599121,401.462219 642.081116,397.454773 
	C642.832642,391.205963 644.255981,385.034912 644.932312,378.780914 
	C645.665283,372.002045 643.393982,366.250519 638.848633,360.932648 
	C637.070190,358.851868 637.512878,354.872559 637.246948,351.287476 
	C638.029724,350.258453 638.509583,349.699860 638.989502,349.141235 
	C642.037598,349.016663 645.085693,348.892090 648.628479,349.284790 
	C650.434082,350.548523 651.666382,351.668518 653.072083,351.964050 
	C656.053162,352.590759 657.466980,354.211182 655.942688,356.861420 
	C651.379639,364.795288 653.761414,373.142578 655.832764,380.586792 
	C658.929565,391.716858 657.555969,402.630951 657.252747,413.625671 
	C656.965820,424.027985 655.513245,434.394592 655.093384,444.797943 
	C654.799927,452.071564 655.820801,459.400696 655.486023,466.669678 
	C654.664856,484.499847 650.728455,501.985229 651.609375,520.123962 
	C652.382080,536.034424 649.989746,552.107300 648.835938,568.096985 
	C648.515686,572.535950 647.257568,576.919189 647.079773,581.354004 
	C646.746460,589.666016 647.218811,598.015320 646.760437,606.316223 
	C645.891724,622.048035 644.294556,637.743652 643.625671,653.480835 
	C643.318970,660.696350 645.159912,668.003052 644.854187,675.218750 
	C644.250122,689.472229 642.946289,703.701477 641.693604,717.919678 
	C641.133240,724.279846 639.993164,730.588623 639.130432,736.922729 
	C639.040833,737.580322 639.169800,738.285339 638.992493,738.910339 
	C637.878723,742.835266 637.236694,747.009644 635.435669,750.598145 
	C632.398743,756.649109 632.195984,756.987488 637.874329,760.984985 
	C628.281250,760.904175 618.688232,760.823425 609.292053,760.373718 
	C609.991699,760.001587 610.494446,759.998352 610.997192,759.995117 
z"/>
<path fill="#ED5531" opacity="1.000000" stroke="none" 
	d="
M403.394867,761.207642 
	C401.577667,760.029541 400.336517,758.619324 398.795380,758.100708 
	C396.561615,757.349060 394.110992,757.242004 391.752838,756.859985 
	C391.563812,756.216492 391.374786,755.572937 391.185760,754.929382 
	C393.862000,753.401611 396.375000,751.338379 399.249786,750.461853 
	C404.593628,748.832581 405.324951,745.596252 404.781219,740.561462 
	C404.128815,734.520874 404.855103,728.343567 404.459106,722.259583 
	C404.075134,716.360046 402.817139,710.520203 402.353088,704.621887 
	C402.109558,701.527039 403.016663,698.355591 402.932587,695.231445 
	C402.673248,685.594788 402.171417,675.964905 401.801697,666.330872 
	C401.726135,664.362488 401.897064,662.384277 401.813629,660.416626 
	C401.562927,654.506042 401.183655,648.600586 400.964020,642.689087 
	C400.663605,634.603088 399.861664,626.642944 400.538208,618.392578 
	C401.396545,607.925110 399.443024,597.221313 398.629883,586.624878 
	C398.159882,580.500061 397.575256,574.383484 396.989746,568.268250 
	C396.629547,564.506592 395.851074,560.757507 395.815338,556.997498 
	C395.706085,545.496887 396.126251,533.985413 395.758545,522.496826 
	C395.650482,519.120239 394.234009,515.870361 396.948639,512.591064 
	C400.710541,512.152039 404.427094,512.042419 408.641571,512.451294 
	C411.451996,515.909790 413.453766,516.136536 414.990173,512.299805 
	C415.444977,512.195190 415.899780,512.090576 416.721954,512.517456 
	C418.284882,517.120605 419.480438,521.192322 420.676025,525.264038 
	C420.794312,538.791138 420.912628,552.318237 420.553162,566.575684 
	C420.282135,570.194092 420.488892,573.082214 420.695679,575.970337 
	C420.794220,589.966431 420.892792,603.962463 420.515442,618.654419 
	C420.244751,623.223877 420.449921,627.097351 420.655121,630.970886 
	C420.834534,632.275513 421.170288,633.580139 421.170502,634.884766 
	C421.176178,670.481323 421.148895,706.077942 421.116425,741.674500 
	C421.115662,742.502441 420.991943,743.330261 420.459717,744.799927 
	C420.180206,747.712646 420.366547,749.983582 420.552887,752.254517 
	C420.684418,753.521912 420.815948,754.789307 420.480316,756.573975 
	C419.686493,758.404236 419.359802,759.717285 419.033142,761.030273 
	C413.967712,761.144836 408.902313,761.259460 403.394867,761.207642 
z"/>
<path fill="#CC3344" opacity="1.000000" stroke="none" 
	d="
M627.562622,349.013306 
	C628.215149,352.217743 629.423218,355.638397 628.433350,358.214478 
	C626.034973,364.455719 625.497620,370.379303 628.164490,376.529327 
	C630.468079,381.841400 630.317566,386.999908 629.389832,392.841003 
	C628.329712,399.515686 629.286743,406.735992 630.537842,413.502777 
	C632.740112,425.413818 633.408569,437.198578 630.959290,449.096680 
	C630.858887,449.584381 630.973145,450.214539 630.704407,450.554932 
	C624.702515,458.157501 627.585327,467.903381 624.545227,476.233398 
	C624.106079,477.436768 624.518982,479.229492 625.106934,480.482300 
	C628.011719,486.672150 627.608948,492.938538 626.425720,499.449921 
	C625.490784,504.595154 625.570007,509.916687 624.832642,515.107910 
	C623.948303,521.334106 622.282410,527.466614 621.672546,533.709839 
	C620.950623,541.100830 621.033325,548.568420 620.691406,555.999329 
	C620.487915,560.420471 620.232605,564.843445 619.835510,569.250732 
	C618.950867,579.069763 618.078247,588.892517 616.984741,598.689575 
	C615.830261,609.033569 614.318420,619.337952 613.185608,629.684021 
	C612.776611,633.419373 613.050171,637.226379 612.950317,640.999023 
	C612.360901,663.260925 611.667358,685.520447 611.187256,707.784546 
	C610.936035,719.434570 611.120361,731.093567 610.928467,742.745544 
	C610.895691,744.737366 609.957581,746.714233 609.066040,748.860779 
	C608.564026,747.038696 608.319946,745.053772 608.319519,743.068909 
	C608.291687,619.333130 608.286255,495.597321 608.266479,371.861511 
	C608.265503,365.866669 608.284973,359.866638 608.046814,353.878876 
	C607.897095,350.115662 609.105835,348.260132 613.143494,348.501617 
	C617.792114,348.779663 622.459351,348.744537 627.562622,349.013306 
z"/>
<path fill="#4F3370" opacity="1.000000" stroke="none" 
	d="
M845.374878,761.184326 
	C842.614563,755.107483 843.148010,749.142639 843.765930,742.945190 
	C844.335571,737.232910 843.027710,731.360352 843.071167,725.562317 
	C843.134521,717.095276 844.136475,708.618225 843.891846,700.169922 
	C843.498596,686.589417 842.178101,673.037170 841.708740,659.457092 
	C841.422485,651.175354 842.176086,642.863220 842.144958,634.565857 
	C842.090942,620.179626 841.756836,605.794617 841.607178,591.408386 
	C841.531372,584.117249 841.552856,576.824097 841.621399,569.532776 
	C841.680542,563.234192 842.054688,556.934082 841.961609,550.639465 
	C841.757446,536.844482 841.018005,523.049927 841.130310,509.260406 
	C841.208496,499.652008 842.812134,490.055847 842.886353,480.447662 
	C842.995117,466.378632 842.148315,452.304565 842.087219,438.231018 
	C842.046997,428.959595 842.963013,419.684235 842.928467,410.412567 
	C842.882202,397.970337 841.707092,385.508667 842.131287,373.093414 
	C842.936218,349.539612 844.620422,326.017029 845.758606,302.472748 
	C846.212524,293.082336 845.955811,283.654724 846.521973,274.274231 
	C846.690125,271.488373 848.558228,268.805145 849.779907,265.803711 
	C852.640442,265.432068 855.368347,265.331604 858.530884,265.360474 
	C855.506042,271.647888 855.111877,278.357025 854.920471,285.248352 
	C854.588501,297.202515 853.702271,309.140411 853.149292,321.089813 
	C852.950623,325.381958 853.063416,329.687866 852.999451,333.986969 
	C852.602966,360.652771 852.138306,387.317688 851.822510,413.984406 
	C851.698792,424.431610 852.028992,434.884155 851.910645,445.331512 
	C851.833801,452.120697 851.249390,458.902466 851.018433,465.691864 
	C850.635376,476.952271 850.156189,488.215118 850.095154,499.478973 
	C850.050354,507.734222 850.784607,515.991394 850.850464,524.250305 
	C850.912354,532.007751 850.333557,539.770813 850.415100,547.527466 
	C850.883118,592.073364 851.488281,636.617737 851.988464,681.163330 
	C852.107605,691.773865 852.079041,702.387634 851.983826,712.998657 
	C851.859253,726.881958 851.501770,740.764099 851.514221,754.646545 
	C851.515991,756.580811 853.055115,758.513733 853.947876,760.729126 
	C851.278015,761.125183 848.542847,761.239258 845.374878,761.184326 
z"/>
<path fill="#753867" opacity="1.000000" stroke="none" 
	d="
M778.987732,267.120789 
	C774.940063,278.782318 772.815979,290.717712 772.922913,303.129578 
	C773.015686,313.893188 772.206421,324.662476 772.196533,335.429626 
	C772.186890,345.874939 772.908508,356.320984 772.898499,366.766296 
	C772.889465,376.183411 772.083557,385.599487 772.064697,395.016907 
	C772.039856,407.413330 772.630798,419.811188 772.590210,432.207275 
	C772.564392,440.090729 771.718201,447.968079 771.516052,455.855255 
	C771.216003,467.563324 771.243347,479.279602 770.973816,490.988739 
	C770.771118,499.791473 771.520325,508.846649 769.695374,517.326721 
	C767.058228,529.581177 770.290588,541.405884 770.086548,553.419678 
	C770.011597,557.830750 770.699585,562.252747 770.996887,566.672668 
	C771.382935,572.411804 769.333862,577.646423 768.133240,583.118042 
	C766.464661,590.722778 767.134521,598.907410 767.319397,606.831787 
	C767.479675,613.700256 768.577698,620.544739 768.805115,627.414917 
	C768.888916,629.946960 767.091309,632.541565 767.176086,635.073303 
	C767.307861,639.007812 768.651367,642.893433 768.879700,646.834717 
	C769.307922,654.227783 769.645264,661.659058 769.357117,669.048584 
	C769.180054,673.589294 767.376038,678.049072 766.996948,682.603027 
	C766.109863,693.259338 765.644592,703.950684 765.001404,714.627502 
	C764.691956,719.764282 764.369934,724.900330 764.047546,730.036316 
	C763.360840,740.978577 766.017334,751.049744 771.958008,760.633362 
	C760.843811,762.130615 760.922363,762.113281 760.924744,751.491760 
	C760.956848,608.190979 760.962036,464.890228 760.965637,321.589478 
	C760.966064,304.760071 760.843445,287.929962 760.992126,271.102112 
	C761.009460,269.135742 762.400452,267.181488 763.727295,265.545532 
	C769.195923,266.286591 774.091797,266.703705 778.987732,267.120789 
z"/>
<path fill="#AB3A5D" opacity="1.000000" stroke="none" 
	d="
M726.492310,352.545380 
	C717.048035,351.744476 716.520874,352.648010 714.829529,362.130585 
	C712.879028,373.065704 713.671021,383.913605 714.249146,394.815460 
	C714.307861,395.922607 714.904846,397.012177 715.310059,398.088013 
	C716.936523,402.406158 716.708008,406.503265 715.804138,411.165222 
	C714.246094,419.200806 714.052307,427.539093 713.744263,435.767548 
	C713.465881,443.204132 713.946655,450.665894 713.831787,458.112549 
	C713.634888,470.875061 713.415405,483.642273 712.864319,496.392792 
	C712.392090,507.319153 711.427124,518.223877 710.720642,529.140808 
	C710.614868,530.775513 710.637878,532.431519 710.759644,534.065918 
	C711.958313,550.150635 711.929626,566.193909 710.359253,582.283508 
	C709.572144,590.348145 710.391541,598.557434 709.915955,606.667908 
	C709.394897,615.553528 707.814941,624.383667 707.438354,633.269409 
	C707.040466,642.656799 707.062561,652.113037 707.717529,661.482117 
	C708.723572,675.872803 709.358093,690.163086 708.487793,704.643921 
	C707.891602,714.563477 705.827393,724.563354 708.466980,734.823608 
	C709.649597,739.420227 707.667908,745.431030 705.551514,750.085999 
	C703.864929,753.795654 703.147278,756.716858 704.967773,760.610962 
	C702.620667,761.069580 700.241394,761.163696 697.535828,760.837769 
	C694.366211,756.410828 692.484619,752.058105 695.416077,747.483337 
	C699.311462,741.404236 699.566833,735.782288 697.518921,728.593567 
	C695.704651,722.224792 697.507019,714.811462 697.793152,707.862610 
	C698.050903,701.604858 698.804688,695.341980 698.649353,689.098633 
	C698.393433,678.814148 697.411438,668.549011 697.079163,658.264587 
	C696.929932,653.643677 697.664307,648.998779 697.900208,644.359741 
	C698.184326,638.775635 698.323181,633.184265 698.598938,627.599609 
	C699.071655,618.025269 699.706360,608.457825 700.078552,598.879944 
	C700.445557,589.437256 700.135559,579.948608 700.923645,570.547363 
	C701.737305,560.841797 704.615173,551.302429 701.068359,541.508118 
	C697.604614,531.943176 699.200134,521.912842 701.049927,512.508301 
	C702.756348,503.832367 702.957703,495.512726 702.368164,486.846130 
	C701.721680,477.343140 701.717346,467.771729 701.939392,458.241913 
	C702.131348,449.998962 703.390686,441.777252 703.499329,433.537201 
	C703.577515,427.601898 702.162781,421.656067 702.097229,415.707397 
	C702.018677,408.577515 702.538513,401.430389 703.049316,394.308685 
	C703.343018,390.214020 704.328918,386.169769 704.637634,382.075226 
	C704.905579,378.521881 705.310730,374.775208 704.507141,371.386200 
	C702.719299,363.846313 700.212769,356.476868 697.999146,349.037964 
	C706.268616,348.881622 714.541016,348.571198 722.804443,348.729919 
	C724.089539,348.754608 725.333435,350.921570 726.492310,352.545380 
z"/>
<path fill="#BD3851" opacity="1.000000" stroke="none" 
	d="
M674.583679,348.882324 
	C671.264282,356.070374 668.565735,363.439606 669.441711,371.530640 
	C671.168091,387.475861 673.606995,403.126801 671.896057,419.522095 
	C670.031006,437.394379 671.843689,455.636139 671.736023,473.714905 
	C671.703552,479.160553 670.294678,484.587585 670.083313,490.045105 
	C669.782654,497.806122 670.238403,505.596466 669.937988,513.357483 
	C669.653015,520.720886 668.531921,528.054077 668.302002,535.416870 
	C668.121399,541.200684 669.117188,547.021729 668.929321,552.804749 
	C668.411621,568.740417 667.296631,584.658386 666.892883,600.595459 
	C666.524353,615.143005 665.481384,629.746399 668.468262,644.208008 
	C668.883240,646.217407 668.330322,648.453491 668.083496,650.568054 
	C667.086670,659.105957 665.652710,667.613281 665.112793,676.178101 
	C664.600586,684.304871 665.503479,692.527527 664.882629,700.639038 
	C664.011292,712.022949 662.297852,723.342041 660.960449,734.690735 
	C659.963074,743.154175 658.990723,751.620667 658.012329,760.553345 
	C655.954041,761.122742 653.890625,761.224487 651.638794,760.982239 
	C652.053833,760.135681 652.657349,759.633179 653.339050,759.065613 
	C647.712097,755.910034 647.084595,753.260986 648.885437,747.068359 
	C650.961853,739.928101 652.951660,732.673706 653.936035,725.328979 
	C654.991638,717.452148 654.388733,709.359741 655.328674,701.458862 
	C656.313477,693.180664 658.095093,685.047546 655.323364,676.771057 
	C654.836914,675.318420 655.476135,673.503113 655.528442,671.853271 
	C655.764282,664.422302 656.162415,656.989746 656.133057,649.559265 
	C656.112244,644.289001 655.100281,639.011047 655.230408,633.753845 
	C655.623840,617.858704 656.683167,601.975647 656.861511,586.080872 
	C657.015747,572.336548 656.263000,558.583496 656.054016,544.832214 
	C656.016663,542.378906 656.532593,539.884705 657.043274,537.462097 
	C658.206787,531.942688 660.013977,526.498108 657.554993,520.835327 
	C657.134094,519.866089 657.334106,518.547913 657.485229,517.422913 
	C658.256958,511.679596 659.745667,505.951080 659.784729,500.209290 
	C659.848999,490.770142 658.202332,481.495483 659.348450,471.831177 
	C660.625000,461.067352 658.635620,449.957397 659.175781,439.052979 
	C659.671753,429.042633 661.640076,419.105042 662.963867,409.135956 
	C663.159546,407.662018 663.732239,406.139221 663.525574,404.727600 
	C662.565857,398.172852 661.296387,391.663635 660.327393,385.110046 
	C659.559265,379.915405 657.904846,374.487335 658.731140,369.509338 
	C659.885010,362.557617 662.982239,355.928467 665.247925,349.161316 
	C665.572205,349.069641 665.896423,348.977966 666.608398,349.269440 
	C667.661072,349.455536 668.325989,349.258453 668.990967,349.061401 
	C670.718140,348.951263 672.445312,348.841125 674.583679,348.882324 
z"/>
<path fill="#AF3A5A" opacity="1.000000" stroke="none" 
	d="
M697.557495,348.890015 
	C700.212769,356.476868 702.719299,363.846313 704.507141,371.386200 
	C705.310730,374.775208 704.905579,378.521881 704.637634,382.075226 
	C704.328918,386.169769 703.343018,390.214020 703.049316,394.308685 
	C702.538513,401.430389 702.018677,408.577515 702.097229,415.707397 
	C702.162781,421.656067 703.577515,427.601898 703.499329,433.537201 
	C703.390686,441.777252 702.131348,449.998962 701.939392,458.241913 
	C701.717346,467.771729 701.721680,477.343140 702.368164,486.846130 
	C702.957703,495.512726 702.756348,503.832367 701.049927,512.508301 
	C699.200134,521.912842 697.604614,531.943176 701.068359,541.508118 
	C704.615173,551.302429 701.737305,560.841797 700.923645,570.547363 
	C700.135559,579.948608 700.445557,589.437256 700.078552,598.879944 
	C699.706360,608.457825 699.071655,618.025269 698.598938,627.599609 
	C698.323181,633.184265 698.184326,638.775635 697.900208,644.359741 
	C697.664307,648.998779 696.929932,653.643677 697.079163,658.264587 
	C697.411438,668.549011 698.393433,678.814148 698.649353,689.098633 
	C698.804688,695.341980 698.050903,701.604858 697.793152,707.862610 
	C697.507019,714.811462 695.704651,722.224792 697.518921,728.593567 
	C699.566833,735.782288 699.311462,741.404236 695.416077,747.483337 
	C692.484619,752.058105 694.366211,756.410828 697.105469,760.709778 
	C694.950806,761.091431 692.900269,761.181030 690.426392,761.140076 
	C689.945312,760.681885 690.007019,760.198486 689.812378,760.049072 
	C681.884155,753.965271 685.620178,746.267822 686.607544,738.777893 
	C687.965210,728.478943 688.895325,718.119080 689.795349,707.766724 
	C690.150574,703.681763 690.122559,699.538269 689.935364,695.436646 
	C689.541870,686.814453 688.721008,678.208435 688.470459,669.584290 
	C688.276184,662.895020 688.434082,656.172119 688.873291,649.492920 
	C689.685547,637.139954 690.933044,624.874023 689.995239,612.399353 
	C689.244019,602.405518 690.009460,592.268799 690.545898,582.219177 
	C690.818054,577.121582 692.515259,572.096191 692.742737,567.001282 
	C692.929932,562.808960 692.335205,558.453674 691.314575,554.363342 
	C689.440186,546.851379 688.843994,539.350647 689.515015,531.659790 
	C689.770691,528.729370 689.007202,525.698364 689.351929,522.789612 
	C690.319824,514.624451 691.796326,506.518311 692.700867,498.347778 
	C693.022217,495.445435 692.541199,492.372131 691.968750,489.467102 
	C689.434631,476.608246 691.146423,463.749329 691.548828,450.867798 
	C691.811584,442.455963 691.006348,434.015808 691.071228,425.591370 
	C691.140320,416.623138 691.960449,407.656433 691.897095,398.692993 
	C691.855652,392.830627 692.212708,387.332764 694.249817,381.654816 
	C695.824524,377.265869 696.966614,371.712341 690.803955,368.623505 
	C689.888184,368.164520 689.348389,366.475891 689.093872,365.260010 
	C688.016296,360.111328 687.112061,354.926331 686.073547,349.405579 
	C689.707031,348.951691 693.411377,348.846863 697.557495,348.890015 
z"/>
<path fill="#C13850" opacity="1.000000" stroke="none" 
	d="
M664.864746,348.979126 
	C662.982239,355.928467 659.885010,362.557617 658.731140,369.509338 
	C657.904846,374.487335 659.559265,379.915405 660.327393,385.110046 
	C661.296387,391.663635 662.565857,398.172852 663.525574,404.727600 
	C663.732239,406.139221 663.159546,407.662018 662.963867,409.135956 
	C661.640076,419.105042 659.671753,429.042633 659.175781,439.052979 
	C658.635620,449.957397 660.625000,461.067352 659.348450,471.831177 
	C658.202332,481.495483 659.848999,490.770142 659.784729,500.209290 
	C659.745667,505.951080 658.256958,511.679596 657.485229,517.422913 
	C657.334106,518.547913 657.134094,519.866089 657.554993,520.835327 
	C660.013977,526.498108 658.206787,531.942688 657.043274,537.462097 
	C656.532593,539.884705 656.016663,542.378906 656.054016,544.832214 
	C656.263000,558.583496 657.015747,572.336548 656.861511,586.080872 
	C656.683167,601.975647 655.623840,617.858704 655.230408,633.753845 
	C655.100281,639.011047 656.112244,644.289001 656.133057,649.559265 
	C656.162415,656.989746 655.764282,664.422302 655.528442,671.853271 
	C655.476135,673.503113 654.836914,675.318420 655.323364,676.771057 
	C658.095093,685.047546 656.313477,693.180664 655.328674,701.458862 
	C654.388733,709.359741 654.991638,717.452148 653.936035,725.328979 
	C652.951660,732.673706 650.961853,739.928101 648.885437,747.068359 
	C647.084595,753.260986 647.712097,755.910034 653.339050,759.065613 
	C652.657349,759.633179 652.053833,760.135681 651.285889,760.825073 
	C647.005859,761.109558 642.890198,761.207275 638.324463,761.145020 
	C632.195984,756.987488 632.398743,756.649109 635.435669,750.598145 
	C637.236694,747.009644 637.878723,742.835266 638.992493,738.910339 
	C639.169800,738.285339 639.040833,737.580322 639.130432,736.922729 
	C639.993164,730.588623 641.133240,724.279846 641.693604,717.919678 
	C642.946289,703.701477 644.250122,689.472229 644.854187,675.218750 
	C645.159912,668.003052 643.318970,660.696350 643.625671,653.480835 
	C644.294556,637.743652 645.891724,622.048035 646.760437,606.316223 
	C647.218811,598.015320 646.746460,589.666016 647.079773,581.354004 
	C647.257568,576.919189 648.515686,572.535950 648.835938,568.096985 
	C649.989746,552.107300 652.382080,536.034424 651.609375,520.123962 
	C650.728455,501.985229 654.664856,484.499847 655.486023,466.669678 
	C655.820801,459.400696 654.799927,452.071564 655.093384,444.797943 
	C655.513245,434.394592 656.965820,424.027985 657.252747,413.625671 
	C657.555969,402.630951 658.929565,391.716858 655.832764,380.586792 
	C653.761414,373.142578 651.379639,364.795288 655.942688,356.861420 
	C657.466980,354.211182 656.053162,352.590759 653.072083,351.964050 
	C651.666382,351.668518 650.434082,350.548523 649.062439,349.440063 
	C654.161682,348.984344 659.321594,348.890656 664.864746,348.979126 
z"/>
<path fill="#7D7D7D" opacity="1.000000" stroke="none" 
	d="
M976.182922,957.759766 
	C981.642944,961.882874 986.877808,965.726074 992.366089,969.755249 
	C981.052490,973.067932 973.187012,981.058777 968.822266,993.258911 
	C964.869263,981.120911 957.365601,972.932495 944.585876,969.205383 
	C956.778320,964.942017 965.063843,957.277466 968.389709,944.355286 
	C971.265198,949.341980 973.611511,953.410950 976.182922,957.759766 
z"/>
<path fill="#532446" opacity="1.000000" stroke="none" 
	d="
M779.455811,267.092529 
	C774.091797,266.703705 769.195923,266.286591 764.114746,265.536469 
	C774.670898,265.136017 785.412170,265.068573 796.614746,265.128662 
	C796.844727,265.749390 796.613525,266.242554 796.185669,266.934265 
	C790.633911,267.109955 785.278931,267.087067 779.455811,267.092529 
z"/>
<path fill="#EE5B32" opacity="1.000000" stroke="none" 
	d="
M420.861755,524.881592 
	C419.480438,521.192322 418.284882,517.120605 417.050598,512.659424 
	C420.181824,511.153595 421.316986,512.737305 421.303802,515.616821 
	C421.290222,518.577942 421.138702,521.538391 420.861755,524.881592 
z"/>
<path fill="#532446" opacity="1.000000" stroke="none" 
	d="
M838.531372,265.181152 
	C837.560913,265.882172 836.140259,266.463531 834.344727,267.073608 
	C830.763855,266.707184 827.557800,266.312042 824.171021,265.601074 
	C828.687317,265.210693 833.384277,265.136078 838.531372,265.181152 
z"/>
<path fill="#EE5B32" opacity="1.000000" stroke="none" 
	d="
M420.826172,630.545410 
	C420.449921,627.097351 420.244751,623.223877 420.343811,619.023926 
	C420.764465,622.504944 420.880859,626.312378 420.826172,630.545410 
z"/>
<path fill="#EE5B32" opacity="1.000000" stroke="none" 
	d="
M420.873199,575.566772 
	C420.488892,573.082214 420.282135,570.194092 420.375977,566.995972 
	C420.801300,569.511719 420.926025,572.337524 420.873199,575.566772 
z"/>
<path fill="#EE5B32" opacity="1.000000" stroke="none" 
	d="
M414.585602,512.133057 
	C413.453766,516.136536 411.451996,515.909790 409.073608,512.629395 
	C410.732178,512.181458 412.456604,512.073914 414.585602,512.133057 
z"/>
<path fill="#EE5B32" opacity="1.000000" stroke="none" 
	d="
M420.737854,751.893311 
	C420.366547,749.983582 420.180206,747.712646 420.269501,745.236084 
	C420.671051,747.197693 420.796936,749.364868 420.737854,751.893311 
z"/>
<path fill="#C13850" opacity="1.000000" stroke="none" 
	d="
M638.583008,348.980103 
	C638.509583,349.699860 638.029724,350.258453 637.276123,350.907410 
	C635.772888,350.582123 634.543335,350.166504 633.164429,349.454956 
	C634.735535,349.045685 636.456055,348.932343 638.583008,348.980103 
z"/>
<path fill="#CC3344" opacity="1.000000" stroke="none" 
	d="
M608.554749,751.388184 
	C611.372192,752.242126 611.784363,753.812012 608.995972,755.896240 
	C608.575562,754.612427 608.498901,753.203552 608.554749,751.388184 
z"/>
<path fill="#EE5B32" opacity="1.000000" stroke="none" 
	d="
M419.391418,761.059326 
	C419.359802,759.717285 419.686493,758.404236 420.314270,756.927246 
	C420.326813,758.204956 420.038239,759.646729 419.391418,761.059326 
z"/>
<path fill="#0E0E0E" opacity="1.000000" stroke="none" 
	d="
M574.504578,433.678925 
	C573.825134,433.471771 573.268127,433.074188 572.382324,432.280762 
	C572.911255,432.419434 573.769104,432.953949 574.504578,433.678925 
z"/>
<path fill="#483271" opacity="1.000000" stroke="none" 
	d="
M879.133118,759.673096 
	C878.359497,759.744080 877.685486,759.490662 877.011475,759.237183 
	C877.529480,758.839844 878.047485,758.442505 878.869019,758.022339 
	C879.192505,758.449219 879.212646,758.898987 879.133118,759.673096 
z"/>
<path fill="#CC3344" opacity="1.000000" stroke="none" 
	d="
M610.867798,759.690918 
	C610.494446,759.998352 609.991699,760.001587 609.111328,760.012329 
	C608.610474,759.569458 608.487244,759.119202 608.481079,758.330017 
	C609.311523,758.456360 610.024963,758.921509 610.867798,759.690918 
z"/>
<path fill="#C13850" opacity="1.000000" stroke="none" 
	d="
M668.710327,348.922913 
	C668.325989,349.258453 667.661072,349.455536 666.827881,349.414856 
	C667.249634,349.046265 667.839722,348.915375 668.710327,348.922913 
z"/>
<path fill="#F28530" opacity="1.000000" stroke="none" 
	d="
M149.641006,592.859009 
	C149.816498,593.658997 149.654922,594.528015 149.239014,595.386047 
	C148.892883,594.973145 148.801086,594.571167 148.709290,594.169189 
	C148.907516,593.755432 149.105728,593.341736 149.641006,592.859009 
z"/>
<path fill="#7D1B16" opacity="1.000000" stroke="none" 
	d="
M148.478531,594.342651 
	C148.801086,594.571167 148.892883,594.973145 149.070435,595.673889 
	C149.156204,595.972656 148.822052,596.161499 148.630096,596.159790 
	C148.374680,595.610718 148.311218,595.063354 148.478531,594.342651 
z"/>
<path fill="#F28530" opacity="1.000000" stroke="none" 
	d="
M148.869171,760.379639 
	C149.128784,760.270874 149.404266,760.489258 149.848694,760.911072 
	C149.640106,760.978516 149.262589,760.842651 148.869171,760.379639 
z"/>
<path fill="#EE6E31" opacity="1.000000" stroke="none" 
	d="
M266.316406,761.026123 
	C266.170349,760.740723 266.366516,760.494141 266.807251,760.151917 
	C266.871704,760.353455 266.740631,760.689636 266.316406,761.026123 
z"/>
</svg>